<?xml version="1.0" encoding="iso-8859-1"?>
<!-- Generator: Adobe Illustrator 18.0.0, SVG Export Plug-In . SVG Version: 6.00 Build 0)  -->
<!DOCTYPE svg PUBLIC "-//W3C//DTD SVG 1.1//EN" "http://www.w3.org/Graphics/SVG/1.1/DTD/svg11.dtd">
<svg version="1.1" id="Capa_1" xmlns="http://www.w3.org/2000/svg" xmlns:xlink="http://www.w3.org/1999/xlink" x="0px" y="0px"
	 viewBox="0 0 297 297" style="enable-background:new 0 0 297 297;" xml:space="preserve">
<path d="M286.542,132.8h-6.798V56.981c0-4.23-2.548-8.043-6.455-9.662C233.525,30.849,191.54,22.497,148.5,22.497
	S63.475,30.849,23.711,47.319c-3.907,1.619-6.455,5.432-6.455,9.662V132.8h-6.798C4.682,132.8,0,137.483,0,143.258v120.787
	c0,5.775,4.682,10.458,10.458,10.458s10.458-4.682,10.458-10.458v-41.308h255.169v41.308c0,5.775,4.682,10.458,10.458,10.458
	c5.775,0,10.458-4.682,10.458-10.458V143.258C297,137.483,292.318,132.8,286.542,132.8z M38.171,64.053
	c71.415-27.74,149.243-27.74,220.658,0V132.8h-10.315c2.179-10.469,0.731-21.114-4.384-31.344c-1.564-3.128-4.588-5.267-8.057-5.701
	c-23.761-2.97-47.854-2.97-71.615,0c-3.469,0.434-6.493,2.573-8.057,5.701c-5.115,10.229-6.563,20.875-4.384,31.344h-7.034
	c2.179-10.469,0.731-21.114-4.384-31.344c-1.564-3.128-4.588-5.267-8.057-5.701c-23.761-2.97-47.854-2.97-71.615,0
	c-3.469,0.434-6.493,2.573-8.057,5.701c-5.115,10.229-6.563,20.875-4.384,31.344H38.171V64.053z M173.072,115.827
	c18.072-1.844,36.316-1.844,54.388,0c1.574,5.084,1.574,10.039,0,15.123c-18.072,1.844-36.316,1.844-54.388,0
	C171.498,125.866,171.498,120.911,173.072,115.827z M69.54,115.827c18.072-1.844,36.316-1.844,54.388,0
	c1.574,5.084,1.574,10.039,0,15.123c-18.072,1.844-36.316,1.844-54.388,0C67.966,125.866,67.966,120.911,69.54,115.827z
	 M20.915,153.716h255.169v48.106H20.915V153.716z"/>
<g>
</g>
<g>
</g>
<g>
</g>
<g>
</g>
<g>
</g>
<g>
</g>
<g>
</g>
<g>
</g>
<g>
</g>
<g>
</g>
<g>
</g>
<g>
</g>
<g>
</g>
<g>
</g>
<g>
</g>
</svg>
